# MagicaVoxel @ Ephtracy

# group
o 

# material
mtllib brick-sand.mtl
usemtl palette

# normals
vn -1 0 0
vn 1 0 0
vn 0 0 1
vn 0 0 -1
vn 0 -1 0
vn 0 1 0

# texcoords
vt 0.330078 0.5
vt 0.337891 0.5
vt 0.341797 0.5
vt 0.357422 0.5
vt 0.392578 0.5

# verts
v 0 2 0
v 0 2 -1
v 0 2.2 0
v 0 2.2 -1
v 0 2.8 0
v 0 2.8 -1
v 0 3 0
v 0 3 -1
v 1 2 0
v 1 2 -1
v 1 2.2 0
v 1 2.2 -1
v 1 2.8 0
v 1 2.8 -1
v 1 3 0
v 1 3 -1
v 0 2 0
v 0 2.2 0
v 0 2.8 0
v 0 3 0
v 1 2 0
v 1 2.2 0
v 1 2.8 0
v 1 3 0
v 0 2 -1
v 0 2.2 -1
v 0 2.8 -1
v 0 3 -1
v 1 2 -1
v 1 2.2 -1
v 1 2.8 -1
v 1 3 -1
v 0 2 0
v 1 2 0
v 0 2 -1
v 1 2 -1
v 0 3 0
v 1 3 0
v 0 3 -1
v 1 3 -1

# faces
f 3/3/1 2/3/1 1/3/1
f 4/3/1 2/3/1 3/3/1
f 5/4/1 4/4/1 3/4/1
f 6/4/1 4/4/1 5/4/1
f 7/5/1 6/5/1 5/5/1
f 8/5/1 6/5/1 7/5/1
f 9/3/2 10/3/2 11/3/2
f 11/3/2 10/3/2 12/3/2
f 11/4/2 12/4/2 13/4/2
f 13/4/2 12/4/2 14/4/2
f 13/5/2 14/5/2 15/5/2
f 15/5/2 14/5/2 16/5/2
f 21/3/3 18/3/3 17/3/3
f 22/4/3 19/4/3 18/4/3
f 22/3/3 18/3/3 21/3/3
f 23/5/3 20/5/3 19/5/3
f 23/4/3 19/4/3 22/4/3
f 24/5/3 20/5/3 23/5/3
f 25/3/4 26/3/4 29/3/4
f 26/4/4 27/4/4 30/4/4
f 29/3/4 26/3/4 30/3/4
f 27/5/4 28/5/4 31/5/4
f 30/4/4 27/4/4 31/4/4
f 31/5/4 28/5/4 32/5/4
f 35/3/5 34/3/5 33/3/5
f 36/3/5 34/3/5 35/3/5
f 37/5/6 38/5/6 39/5/6
f 39/5/6 38/5/6 40/5/6
